<svg width="50" height="50" viewBox="0 0 50 50" fill="none" xmlns="http://www.w3.org/2000/svg">
<path d="M42.6667 31.6667V11.6667C42.6667 9.83333 41.1667 8.33333 39.3333 8.33333H19.3333C17.5 8.33333 16 9.83333 16 11.6667V31.6667C16 33.5 17.5 35 19.3333 35H39.3333C41.1667 35 42.6667 33.5 42.6667 31.6667ZM9.33333 15V38.3333C9.33333 40.1667 10.8333 41.6667 12.6667 41.6667H36V38.3333H12.6667V15H9.33333Z" fill="black"/>
<path d="M37.1111 22.7778H30.4444V29.4444H28.2222V22.7778H21.5556V20.5556H28.2222V13.8889H30.4444V20.5556H37.1111V22.7778Z" fill="white"/>
</svg>
