<svg width="50" height="50" viewBox="0 0 50 50" fill="none" xmlns="http://www.w3.org/2000/svg">
<path d="M34.3333 13H28.76C28.2 11.4533 26.7333 10.3333 25 10.3333C23.2667 10.3333 21.8 11.4533 21.24 13H15.6667C14.2 13 13 14.2 13 15.6667V34.3333C13 35.8 14.2 37 15.6667 37H34.3333C35.8 37 37 35.8 37 34.3333V15.6667C37 14.2 35.8 13 34.3333 13ZM25 13C25.7333 13 26.3333 13.6 26.3333 14.3333C26.3333 15.0667 25.7333 15.6667 25 15.6667C24.2667 15.6667 23.6667 15.0667 23.6667 14.3333C23.6667 13.6 24.2667 13 25 13ZM27.6667 31.6667H18.3333V29H27.6667V31.6667ZM31.6667 26.3333H18.3333V23.6667H31.6667V26.3333ZM31.6667 21H18.3333V18.3333H31.6667V21Z" fill="black"/>
</svg>
