<svg width="50" height="50" viewBox="0 0 50 50" fill="none" xmlns="http://www.w3.org/2000/svg">
<path d="M14.7068 17.0818C15.3366 17.0818 15.9407 16.8315 16.3861 16.3861C16.8315 15.9407 17.0818 15.3366 17.0818 14.7068C17.0818 14.0769 16.8315 13.4728 16.3861 13.0274C15.9407 12.582 15.3366 12.3318 14.7068 12.3318C14.0769 12.3318 13.4728 12.582 13.0274 13.0274C12.582 13.4728 12.3318 14.0769 12.3318 14.7068C12.3318 15.3366 12.582 15.9407 13.0274 16.3861C13.4728 16.8315 14.0769 17.0818 14.7068 17.0818V17.0818ZM39.8976 24.3334C40.4755 24.9082 40.8318 25.703 40.8318 26.5818C40.8318 27.4558 40.4787 28.2443 39.9055 28.8206L28.8222 39.9039C28.5282 40.1985 28.179 40.4323 27.7945 40.5917C27.4101 40.7512 26.998 40.8333 26.5818 40.8333C26.1655 40.8333 25.7534 40.7512 25.369 40.5917C24.9845 40.4323 24.6353 40.1985 24.3413 39.9039L10.0961 25.6571C9.80064 25.3633 9.56627 25.0139 9.40648 24.6291C9.2467 24.2444 9.16465 23.8317 9.16509 23.4151V12.3318C9.16509 11.4919 9.49872 10.6864 10.0926 10.0926C10.6864 9.49871 11.4919 9.16508 12.3318 9.16508H23.4151C24.2907 9.16508 25.0823 9.51817 25.6555 10.0913L39.8992 24.335L39.8976 24.3334ZM26.5833 37.6667L37.6667 26.5833L24.2083 13.125L13.125 24.2083L26.5833 37.6667ZM21.9695 20.1138L24.2083 17.875L32.9167 26.5833L30.6778 28.8222L21.9695 20.1138ZM18.0112 24.0722L20.25 21.8333L26.5833 28.1667L24.3445 30.4055L18.0112 24.0722Z" fill="black"/>
</svg>
