<svg width="50" height="50" viewBox="0 0 50 50" fill="none" xmlns="http://www.w3.org/2000/svg">
<path d="M15 21.6667C13.1667 21.6667 11.6667 23.1667 11.6667 25C11.6667 26.8333 13.1667 28.3333 15 28.3333C16.8333 28.3333 18.3333 26.8333 18.3333 25C18.3333 23.1667 16.8333 21.6667 15 21.6667ZM35 21.6667C33.1667 21.6667 31.6667 23.1667 31.6667 25C31.6667 26.8333 33.1667 28.3333 35 28.3333C36.8333 28.3333 38.3333 26.8333 38.3333 25C38.3333 23.1667 36.8333 21.6667 35 21.6667ZM25 21.6667C23.1667 21.6667 21.6667 23.1667 21.6667 25C21.6667 26.8333 23.1667 28.3333 25 28.3333C26.8333 28.3333 28.3333 26.8333 28.3333 25C28.3333 23.1667 26.8333 21.6667 25 21.6667Z" fill="black"/>
</svg>
