<svg width="50" height="50" viewBox="0 0 50 50" fill="none" xmlns="http://www.w3.org/2000/svg">
<path d="M28.3333 25H18.3333C17.8913 25 17.4674 25.1756 17.1548 25.4882C16.8423 25.8007 16.6667 26.2246 16.6667 26.6667C16.6667 27.1087 16.8423 27.5326 17.1548 27.8452C17.4674 28.1577 17.8913 28.3333 18.3333 28.3333H28.3333C28.7754 28.3333 29.1993 28.1577 29.5118 27.8452C29.8244 27.5326 30 27.1087 30 26.6667C30 26.2246 29.8244 25.8007 29.5118 25.4882C29.1993 25.1756 28.7754 25 28.3333 25ZM37.35 36.6667L39.5167 34.5167C39.8305 34.2028 40.0068 33.7772 40.0068 33.3333C40.0068 32.8895 39.8305 32.4638 39.5167 32.15C39.2028 31.8362 38.7772 31.6598 38.3333 31.6598C37.8895 31.6598 37.4638 31.8362 37.15 32.15L35 34.3167L32.85 32.15C32.5362 31.8362 32.1105 31.6598 31.6667 31.6598C31.2228 31.6598 30.7972 31.8362 30.4833 32.15C30.1695 32.4638 29.9932 32.8895 29.9932 33.3333C29.9932 33.7772 30.1695 34.2028 30.4833 34.5167L32.65 36.6667L30.4833 38.8167C30.3271 38.9716 30.2031 39.1559 30.1185 39.359C30.0339 39.5621 29.9903 39.78 29.9903 40C29.9903 40.22 30.0339 40.4379 30.1185 40.641C30.2031 40.8441 30.3271 41.0284 30.4833 41.1833C30.6383 41.3395 30.8226 41.4635 31.0257 41.5482C31.2288 41.6328 31.4466 41.6763 31.6667 41.6763C31.8867 41.6763 32.1045 41.6328 32.3076 41.5482C32.5107 41.4635 32.6951 41.3395 32.85 41.1833L35 39.0167L37.15 41.1833C37.3049 41.3395 37.4893 41.4635 37.6924 41.5482C37.8955 41.6328 38.1133 41.6763 38.3333 41.6763C38.5534 41.6763 38.7712 41.6328 38.9743 41.5482C39.1774 41.4635 39.3617 41.3395 39.5167 41.1833C39.6729 41.0284 39.7969 40.8441 39.8815 40.641C39.9661 40.4379 40.0097 40.22 40.0097 40C40.0097 39.78 39.9661 39.5621 39.8815 39.359C39.7969 39.1559 39.6729 38.9716 39.5167 38.8167L37.35 36.6667ZM25 38.3333H15C14.558 38.3333 14.134 38.1577 13.8215 37.8452C13.5089 37.5326 13.3333 37.1087 13.3333 36.6667V13.3333C13.3333 12.8913 13.5089 12.4674 13.8215 12.1548C14.134 11.8423 14.558 11.6667 15 11.6667H23.3333V16.6667C23.3333 17.9927 23.8601 19.2645 24.7978 20.2022C25.7355 21.1399 27.0073 21.6667 28.3333 21.6667H33.3333V26.6667C33.3333 27.1087 33.5089 27.5326 33.8215 27.8452C34.134 28.1577 34.558 28.3333 35 28.3333C35.442 28.3333 35.866 28.1577 36.1785 27.8452C36.4911 27.5326 36.6667 27.1087 36.6667 26.6667V20V19.9C36.6493 19.7469 36.6158 19.596 36.5667 19.45V19.3C36.4865 19.1286 36.3796 18.9711 36.25 18.8333L26.25 8.83333C26.1122 8.70369 25.9547 8.5968 25.7833 8.51666C25.7282 8.50701 25.6718 8.50701 25.6167 8.51666C25.4546 8.43 25.2804 8.3682 25.1 8.33333H15C13.6739 8.33333 12.4021 8.86011 11.4645 9.79779C10.5268 10.7355 10 12.0072 10 13.3333V36.6667C10 37.9927 10.5268 39.2645 11.4645 40.2022C12.4021 41.1399 13.6739 41.6667 15 41.6667H25C25.442 41.6667 25.8659 41.4911 26.1785 41.1785C26.4911 40.8659 26.6667 40.442 26.6667 40C26.6667 39.558 26.4911 39.134 26.1785 38.8215C25.8659 38.5089 25.442 38.3333 25 38.3333ZM26.6667 14.0167L30.9833 18.3333H28.3333C27.8913 18.3333 27.4674 18.1577 27.1548 17.8452C26.8423 17.5326 26.6667 17.1087 26.6667 16.6667V14.0167ZM18.3333 18.3333C17.8913 18.3333 17.4674 18.5089 17.1548 18.8215C16.8423 19.134 16.6667 19.558 16.6667 20C16.6667 20.442 16.8423 20.8659 17.1548 21.1785C17.4674 21.4911 17.8913 21.6667 18.3333 21.6667H20C20.442 21.6667 20.866 21.4911 21.1785 21.1785C21.4911 20.8659 21.6667 20.442 21.6667 20C21.6667 19.558 21.4911 19.134 21.1785 18.8215C20.866 18.5089 20.442 18.3333 20 18.3333H18.3333ZM25 31.6667H18.3333C17.8913 31.6667 17.4674 31.8423 17.1548 32.1548C16.8423 32.4674 16.6667 32.8913 16.6667 33.3333C16.6667 33.7754 16.8423 34.1993 17.1548 34.5118C17.4674 34.8244 17.8913 35 18.3333 35H25C25.442 35 25.8659 34.8244 26.1785 34.5118C26.4911 34.1993 26.6667 33.7754 26.6667 33.3333C26.6667 32.8913 26.4911 32.4674 26.1785 32.1548C25.8659 31.8423 25.442 31.6667 25 31.6667Z" fill="black"/>
</svg>
