<svg width="50" height="50" viewBox="0 0 50 50" fill="none" xmlns="http://www.w3.org/2000/svg">
<mask id="mask0" mask-type="alpha" maskUnits="userSpaceOnUse" x="7" y="25" width="37" height="25">
<path d="M7 25H44V50H7V25Z" fill="#C4C4C4"/>
</mask>
<g mask="url(#mask0)">
<path d="M36.2917 13.625H29.8475C29.2 11.8367 27.5042 10.5417 25.5 10.5417C23.4958 10.5417 21.8 11.8367 21.1525 13.625H14.7083C13.0125 13.625 11.625 15.0125 11.625 16.7083V38.2917C11.625 39.9875 13.0125 41.375 14.7083 41.375H36.2917C37.9875 41.375 39.375 39.9875 39.375 38.2917V16.7083C39.375 15.0125 37.9875 13.625 36.2917 13.625ZM25.5 13.625C26.3479 13.625 27.0417 14.3188 27.0417 15.1667C27.0417 16.0146 26.3479 16.7083 25.5 16.7083C24.6521 16.7083 23.9583 16.0146 23.9583 15.1667C23.9583 14.3188 24.6521 13.625 25.5 13.625ZM28.5833 35.2083H17.7917V32.125H28.5833V35.2083ZM33.2083 29.0417H17.7917V25.9583H33.2083V29.0417ZM33.2083 22.875H17.7917V19.7917H33.2083V22.875Z" fill="white"/>
</g>
<mask id="mask1" mask-type="alpha" maskUnits="userSpaceOnUse" x="6" y="0" width="37" height="25">
<path d="M6 0H43V25H6V0Z" fill="#C4C4C4"/>
</mask>
<g mask="url(#mask1)">
<path d="M25.5833 8.75C17.7142 8.75 11.3333 15.1308 11.3333 23H6.58333L12.7425 29.1592L12.8533 29.3808L19.25 23H14.5C14.5 16.8725 19.4558 11.9167 25.5833 11.9167C31.7108 11.9167 36.6667 16.8725 36.6667 23C36.6667 29.1275 31.7108 34.0833 25.5833 34.0833C22.5275 34.0833 19.7567 32.8325 17.7617 30.8217L15.5133 33.07C18.0942 35.6508 21.6408 37.25 25.5833 37.25C33.4525 37.25 39.8333 30.8692 39.8333 23C39.8333 15.1308 33.4525 8.75 25.5833 8.75ZM24 16.6667V24.5833L30.7767 28.605L31.9167 26.6892L26.375 23.3958V16.6667H24Z" fill="white"/>
</g>
</svg>
