<svg width="50" height="50" viewBox="0 0 50 50" fill="none" xmlns="http://www.w3.org/2000/svg">
<path d="M18 16.25H39C39.9625 16.25 40.75 15.4625 40.75 14.5C40.75 13.5375 39.9625 12.75 39 12.75H18C17.0375 12.75 16.25 13.5375 16.25 14.5C16.25 15.4625 17.0375 16.25 18 16.25ZM39 33.75H18C17.0375 33.75 16.25 34.5375 16.25 35.5C16.25 36.4625 17.0375 37.25 18 37.25H39C39.9625 37.25 40.75 36.4625 40.75 35.5C40.75 34.5375 39.9625 33.75 39 33.75ZM39 23.25H18C17.0375 23.25 16.25 24.0375 16.25 25C16.25 25.9625 17.0375 26.75 18 26.75H39C39.9625 26.75 40.75 25.9625 40.75 25C40.75 24.0375 39.9625 23.25 39 23.25ZM11.875 32H8.375C7.885 32 7.5 32.385 7.5 32.875C7.5 33.365 7.885 33.75 8.375 33.75H11V34.625H10.125C9.635 34.625 9.25 35.01 9.25 35.5C9.25 35.99 9.635 36.375 10.125 36.375H11V37.25H8.375C7.885 37.25 7.5 37.635 7.5 38.125C7.5 38.615 7.885 39 8.375 39H11.875C12.365 39 12.75 38.615 12.75 38.125V32.875C12.75 32.385 12.365 32 11.875 32ZM8.375 12.75H9.25V17.125C9.25 17.615 9.635 18 10.125 18C10.615 18 11 17.615 11 17.125V11.875C11 11.385 10.615 11 10.125 11H8.375C7.885 11 7.5 11.385 7.5 11.875C7.5 12.365 7.885 12.75 8.375 12.75ZM11.875 21.5H8.375C7.885 21.5 7.5 21.885 7.5 22.375C7.5 22.865 7.885 23.25 8.375 23.25H10.65L7.71 26.68C7.57506 26.8354 7.50052 27.0342 7.5 27.24V27.625C7.5 28.115 7.885 28.5 8.375 28.5H11.875C12.365 28.5 12.75 28.115 12.75 27.625C12.75 27.135 12.365 26.75 11.875 26.75H9.6L12.54 23.32C12.6749 23.1646 12.7495 22.9658 12.75 22.76V22.375C12.75 21.885 12.365 21.5 11.875 21.5V21.5Z" fill="black"/>
</svg>
