<svg width="50" height="50" viewBox="0 0 50 50" fill="none" xmlns="http://www.w3.org/2000/svg">
<path d="M34.24 22.9H22.06C20.9008 22.9 20.8 23.8387 20.8 25C20.8 26.1613 20.9008 27.1 22.06 27.1H34.24C35.3992 27.1 35.5 26.1613 35.5 25C35.5 23.8387 35.3992 22.9 34.24 22.9V22.9ZM38.44 33.4H22.06C20.9008 33.4 20.8 34.3387 20.8 35.5C20.8 36.6613 20.9008 37.6 22.06 37.6H38.44C39.5992 37.6 39.7 36.6613 39.7 35.5C39.7 34.3387 39.5992 33.4 38.44 33.4ZM22.06 16.6H38.44C39.5992 16.6 39.7 15.6613 39.7 14.5C39.7 13.3387 39.5992 12.4 38.44 12.4H22.06C20.9008 12.4 20.8 13.3387 20.8 14.5C20.8 15.6613 20.9008 16.6 22.06 16.6ZM15.34 22.9H11.56C10.4008 22.9 10.3 23.8387 10.3 25C10.3 26.1613 10.4008 27.1 11.56 27.1H15.34C16.4992 27.1 16.6 26.1613 16.6 25C16.6 23.8387 16.4992 22.9 15.34 22.9ZM15.34 33.4H11.56C10.4008 33.4 10.3 34.3387 10.3 35.5C10.3 36.6613 10.4008 37.6 11.56 37.6H15.34C16.4992 37.6 16.6 36.6613 16.6 35.5C16.6 34.3387 16.4992 33.4 15.34 33.4ZM15.34 12.4H11.56C10.4008 12.4 10.3 13.3387 10.3 14.5C10.3 15.6613 10.4008 16.6 11.56 16.6H15.34C16.4992 16.6 16.6 15.6613 16.6 14.5C16.6 13.3387 16.4992 12.4 15.34 12.4Z" fill="black"/>
</svg>
