<svg width="50" height="50" viewBox="0 0 50 50" fill="none" xmlns="http://www.w3.org/2000/svg">
<path d="M26.6667 10C18.3833 10 11.6667 16.7167 11.6667 25H6.66667L13.15 31.4833L13.2667 31.7167L20 25H15C15 18.55 20.2167 13.3333 26.6667 13.3333C33.1167 13.3333 38.3333 18.55 38.3333 25C38.3333 31.45 33.1167 36.6667 26.6667 36.6667C23.45 36.6667 20.5333 35.35 18.4333 33.2333L16.0667 35.6C18.7833 38.3167 22.5167 40 26.6667 40C34.95 40 41.6667 33.2833 41.6667 25C41.6667 16.7167 34.95 10 26.6667 10ZM25 18.3333V26.6667L32.1333 30.9L33.3333 28.8833L27.5 25.4167V18.3333H25Z" fill="black"/>
</svg>
