<svg width="50" height="50" viewBox="0 0 50 50" fill="none" xmlns="http://www.w3.org/2000/svg">
<path d="M33.75 9.25H12.75C11.8217 9.25 10.9315 9.61875 10.2751 10.2751C9.61875 10.9315 9.25 11.8217 9.25 12.75V37.25C9.25 38.1783 9.61875 39.0685 10.2751 39.7249C10.9315 40.3813 11.8217 40.75 12.75 40.75H37.25C39.175 40.75 40.75 39.175 40.75 37.25V16.25L33.75 9.25ZM25 37.25C22.095 37.25 19.75 34.905 19.75 32C19.75 29.095 22.095 26.75 25 26.75C27.905 26.75 30.25 29.095 30.25 32C30.25 34.905 27.905 37.25 25 37.25ZM30.25 19.75H12.75V12.75H30.25V19.75Z" fill="black"/>
</svg>
