<svg width="50" height="50" viewBox="0 0 50 50" fill="none" xmlns="http://www.w3.org/2000/svg">
<path d="M24.9808 5.83333C14.4008 5.83333 5.83333 14.42 5.83333 25C5.83333 35.58 14.4008 44.1667 24.9808 44.1667C35.58 44.1667 44.1667 35.58 44.1667 25C44.1667 14.42 35.58 5.83333 24.9808 5.83333ZM25 40.3333C16.5283 40.3333 9.66666 33.4717 9.66666 25C9.66666 16.5283 16.5283 9.66666 25 9.66666C33.4717 9.66666 40.3333 16.5283 40.3333 25C40.3333 33.4717 33.4717 40.3333 25 40.3333Z" fill="black"/>
<path d="M25.9583 15.4167H23.0833V26.9167L33.1458 32.9542L34.5833 30.5967L25.9583 25.4792V15.4167Z" fill="black"/>
</svg>
