<svg width="50" height="50" viewBox="0 0 50 50" fill="none" xmlns="http://www.w3.org/2000/svg">
<path d="M25 12.5C16.6667 12.5 9.55 17.6833 6.66667 25C9.55 32.3167 16.6667 37.5 25 37.5C33.3333 37.5 40.45 32.3167 43.3333 25C40.45 17.6833 33.3333 12.5 25 12.5ZM25 33.3333C20.4 33.3333 16.6667 29.6 16.6667 25C16.6667 20.4 20.4 16.6667 25 16.6667C29.6 16.6667 33.3333 20.4 33.3333 25C33.3333 29.6 29.6 33.3333 25 33.3333ZM25 20C22.2333 20 20 22.2333 20 25C20 27.7667 22.2333 30 25 30C27.7667 30 30 27.7667 30 25C30 22.2333 27.7667 20 25 20Z" fill="black"/>
</svg>
