<svg width="50" height="50" viewBox="0 0 50 50" fill="none" xmlns="http://www.w3.org/2000/svg">
<path d="M43.8312 23.8313L40.175 20.175C39.425 19.425 38.4062 19.0063 37.3438 19.0063H35V13C35 11.8937 34.1063 11 33 11H7C5.89375 11 5 11.8937 5 13V34C5 36.7625 7.2375 39 10 39C11.6437 39 13.0875 38.1938 14 36.975C14.9125 38.2 16.3563 39 18 39C20.7625 39 23 36.7625 23 34C23 33.6562 22.9625 33.325 22.9 33H33.1C33.0313 33.325 33 33.6562 33 34C33 36.7625 35.2375 39 38 39C40.7625 39 43 36.7625 43 34C43 33.6562 42.9625 33.325 42.9 33H44C44.55 33 45 32.55 45 32V26.6562C45 25.5938 44.5812 24.5813 43.8312 23.8313ZM10 36C8.9 36 8 35.1 8 34C8 32.9 8.9 32 10 32C11.1 32 12 32.9 12 34C12 35.1 11.1 36 10 36ZM18 36C16.9 36 16 35.1 16 34C16 32.9 16.9 32 18 32C19.1 32 20 32.9 20 34C20 35.1 19.1 36 18 36ZM35 22H37.3438C37.6125 22 37.8625 22.1062 38.05 22.2937L40.7562 25H35V22ZM38 36C36.9 36 36 35.1 36 34C36 32.9 36.9 32 38 32C39.1 32 40 32.9 40 34C40 35.1 39.1 36 38 36Z" fill="black"/>
</svg>
