<svg width="50" height="50" viewBox="0 0 50 50" fill="none" xmlns="http://www.w3.org/2000/svg">
<path d="M21.5 33.75L14.5 26.75L16.9675 24.2825L21.5 28.7975L33.0325 17.265L35.5 19.75L21.5 33.75ZM25 9.25C25.9625 9.25 26.75 10.0375 26.75 11C26.75 11.9625 25.9625 12.75 25 12.75C24.0375 12.75 23.25 11.9625 23.25 11C23.25 10.0375 24.0375 9.25 25 9.25ZM37.25 9.25H29.935C29.2 7.22 27.275 5.75 25 5.75C22.725 5.75 20.8 7.22 20.065 9.25H12.75C10.825 9.25 9.25 10.825 9.25 12.75V37.25C9.25 39.175 10.825 40.75 12.75 40.75H37.25C39.175 40.75 40.75 39.175 40.75 37.25V12.75C40.75 10.825 39.175 9.25 37.25 9.25Z" fill="black"/>
</svg>
